<svg width="101" height="100" viewBox="0 0 101 100" fill="none" xmlns="http://www.w3.org/2000/svg">
<g clip-path="url(#clip0_498_18619)">
<g clip-path="url(#clip1_498_18619)">
<path d="M42.5485 77.6612C46.9828 79.4763 50.2839 82.9005 52.0477 86.9887L52.0494 86.993C52.3186 87.6228 52.8937 88.0133 53.5124 88.0372C55.0848 88.0911 56.6649 88.0603 58.2484 87.9407C58.844 87.8954 59.3884 87.4946 59.6251 86.875V86.8725C61.2522 82.6219 64.5174 78.9952 69.0218 77.028C73.4279 75.1009 78.1887 75.124 82.3461 76.7032L82.3512 76.7049C83.0947 76.9904 83.9458 76.8195 84.5278 76.2623L84.5312 76.2597C85.6362 75.2078 86.9095 73.9524 87.6392 73.0979L87.6444 73.0919C88.0563 72.615 88.1494 71.945 87.9059 71.405C86.0258 67.2416 85.7626 62.3526 87.5632 57.7645C89.3467 53.2131 92.8221 49.8188 96.983 48.0294C97.6188 47.7542 98.0059 47.1791 98.029 46.5723C98.0768 45.1563 98.0606 43.7343 97.9674 42.3115L97.9281 41.8133C97.8811 41.2168 97.482 40.6742 96.8599 40.4349C92.6128 38.8104 88.9903 35.5502 87.0248 31.0647C85.0593 26.5748 85.1174 21.7081 86.8069 17.49V17.4883C87.0539 16.8756 86.9274 16.215 86.5223 15.7783C85.4353 14.6084 84.286 13.506 83.0836 12.4729C82.6264 12.0806 81.9385 11.9713 81.2967 12.2524C77.1589 14.0846 72.3059 14.329 67.7502 12.5498C63.1886 10.7689 59.7892 7.29255 57.9937 3.12913V3.12657C57.722 2.49676 57.1486 2.10794 56.5359 2.08486C54.9524 2.03103 53.3655 2.05837 51.7794 2.18143H51.776C51.1838 2.22672 50.6403 2.62409 50.3993 3.25048C48.7722 7.49764 45.5069 11.1193 41.0034 13.0856C36.4999 15.0519 31.6161 14.9896 27.3852 13.2907C26.763 13.0429 26.0999 13.1719 25.6624 13.5761C24.4993 14.6529 23.4038 15.7928 22.3757 16.9815C21.9792 17.4421 21.8724 18.1292 22.1544 18.7641C24.0028 22.9053 24.2575 27.7678 22.4697 32.3286C20.6777 36.8987 17.1843 40.2965 13.0064 42.0851C12.362 42.3636 11.9766 42.9405 11.9552 43.5455C11.9014 45.1136 11.9322 46.6911 12.0518 48.2686C12.0962 48.8583 12.4936 49.4035 13.1243 49.6453C16.4485 50.9067 19.3899 53.1704 21.4605 56.2442C21.7707 56.7048 22.0613 57.1834 22.3304 57.6799" stroke="#00373B" stroke-width="3.48831" stroke-linecap="round" stroke-linejoin="round"/>
<path d="M55.2763 67.5356C67.6902 67.5356 77.7538 57.4721 77.7538 45.0582C77.7538 32.6442 67.6902 22.5807 55.2763 22.5807C42.8623 22.5807 32.7988 32.6442 32.7988 45.0582C32.7988 57.4721 42.8623 67.5356 55.2763 67.5356Z" stroke="#00373B" stroke-width="3.48831" stroke-linecap="round" stroke-linejoin="round"/>
<path d="M24.9871 99.6865C38.7579 99.6865 49.9214 88.523 49.9214 74.7522C49.9214 60.9813 38.7579 49.8179 24.9871 49.8179C11.2162 49.8179 0.0527344 60.9813 0.0527344 74.7522C0.0527344 88.523 11.2162 99.6865 24.9871 99.6865Z" fill="url(#paint0_linear_498_18619)"/>
<path d="M13.6348 80.3103L19.2219 84.1114C20.5439 85.0104 22.3376 84.7164 23.3041 83.4431L36.3378 66.2562" stroke="#00373B" stroke-width="3.48831" stroke-linecap="round" stroke-linejoin="round"/>
</g>
</g>
<defs>
<linearGradient id="paint0_linear_498_18619" x1="0.0527344" y1="74.7522" x2="49.9205" y2="74.7522" gradientUnits="userSpaceOnUse">
<stop stop-color="#38B270"/>
<stop offset="1" stop-color="#3EEC78"/>
</linearGradient>
<clipPath id="clip0_498_18619">
<rect width="100" height="100" fill="white" transform="translate(0.0527344)"/>
</clipPath>
<clipPath id="clip1_498_18619">
<rect width="99.7458" height="99.3715" fill="white" transform="translate(0.0527344 0.314209)"/>
</clipPath>
</defs>
</svg>
