<svg width="101" height="100" viewBox="0 0 101 100" fill="none" xmlns="http://www.w3.org/2000/svg">
<g clip-path="url(#clip0_498_18618)">
<g clip-path="url(#clip1_498_18618)">
<path d="M63.3331 12.3621C73.4528 22.4818 73.4528 38.88 63.3331 48.9998C53.2133 59.1196 36.8151 59.1196 26.6953 48.9998C16.5755 38.88 16.5755 22.4818 26.6953 12.3621C36.8151 2.24227 53.2133 2.24227 63.3331 12.3621Z" fill="url(#paint0_linear_498_18618)"/>
<path d="M46.8307 28.9872V21.2424C47.946 21.4283 48.834 21.862 49.5156 22.4816C50.2384 23.1631 50.7341 24.1132 50.9406 25.311C50.9613 25.4349 51.0645 25.5382 51.2091 25.5382H54.2244C54.2244 25.5382 54.3689 25.4969 54.4309 25.4556C54.4722 25.3936 54.5135 25.3317 54.4929 25.2491C54.3276 23.3077 53.5015 21.6761 52.1385 20.4989C50.8167 19.3631 49.0199 18.6402 46.8307 18.413V14.7369C46.8307 14.5923 46.7068 14.4684 46.5622 14.4684H44.4763C44.3318 14.4684 44.2078 14.5923 44.2078 14.7369V18.3717C39.499 18.7022 36.0501 21.3044 36.0501 24.898C36.0501 26.5915 36.6696 27.9339 37.7849 28.9459C38.8795 29.9579 40.4697 30.6187 42.3904 31.0937L44.2285 31.5275V40.47C42.6382 40.2635 41.461 39.7265 40.5936 38.983C39.6643 38.1776 39.1067 37.145 38.8588 35.9678C38.8382 35.8438 38.7142 35.7612 38.5903 35.7612H35.5337C35.5337 35.7612 35.3892 35.8025 35.3272 35.8645C35.2859 35.9265 35.2446 36.0091 35.2653 36.0917C35.9261 40.1602 39.2306 42.9484 44.2285 43.3614V46.9963C44.2285 47.1408 44.3524 47.2647 44.497 47.2647H46.5829C46.7275 47.2647 46.8514 47.1408 46.8514 46.9963V43.3614C51.4982 42.9484 55.1331 40.0983 55.1331 36.1123C55.1331 34.171 54.4102 32.7046 53.1711 31.6307C51.9319 30.5568 50.2178 29.8339 48.2351 29.3796L46.8514 29.0491L46.8307 28.9872ZM43.485 28.2024C42.0806 27.8719 41.1306 27.5002 40.5317 26.9839C39.9534 26.4882 39.6643 25.8273 39.6643 24.836C39.6643 23.7621 40.1393 22.9153 40.9654 22.2957C41.7502 21.7175 42.8654 21.3251 44.2285 21.2011V28.3883L43.5057 28.223L43.485 28.2024ZM51.5189 36.1949C51.5189 38.2602 49.8873 40.0983 46.8307 40.4907V32.1264C48.421 32.5188 49.5982 32.9731 50.3623 33.634C51.1265 34.2743 51.4982 35.0797 51.4982 36.2156L51.5189 36.1949Z" fill="#00373B" stroke="#00373B" stroke-width="0.516316" stroke-linejoin="round"/>
<path d="M83.6325 67.484L82.7031 59.1403L94.8056 57.7772L98.5024 90.6355L86.3793 91.9986L85.4086 83.3039" stroke="#00373B" stroke-width="3.09789" stroke-linecap="round" stroke-linejoin="round"/>
<path d="M60.8539 75.6416L38.4458 77.5004C36.2979 77.6862 34.3979 76.1166 34.15 73.9894C33.8815 71.7589 35.5131 69.7556 37.7436 69.5491L50.0319 68.3512C52.5515 68.1034 55.0092 67.4219 57.3016 66.3066C59.9658 65.0055 64.0137 63.374 67.8551 63.0435C73.6585 62.5479 80.1641 63.7664 83.3033 64.4685" stroke="#00373B" stroke-width="3.09789" stroke-linecap="round" stroke-linejoin="round"/>
<path d="M34.2522 74.8983L7.25921 65.9144C5.09068 65.1915 2.73628 66.2861 1.91018 68.4133C1.08407 70.4992 2.01344 72.8536 4.0374 73.845C4.0374 73.845 31.6913 90.6562 42.4719 92.6802C53.2526 94.7041 60.0473 90.7388 67.6681 88.942C75.289 87.1453 79.688 87.1453 85.9251 87.7648" stroke="#00373B" stroke-width="3.09789" stroke-linecap="round" stroke-linejoin="round"/>
</g>
</g>
<defs>
<linearGradient id="paint0_linear_498_18618" x1="51.21" y1="10.0696" x2="37.5586" y2="55.5054" gradientUnits="userSpaceOnUse">
<stop stop-color="#38B270"/>
<stop offset="1" stop-color="#3EEC78"/>
</linearGradient>
<clipPath id="clip0_498_18618">
<rect width="100" height="100" fill="white" transform="translate(0.0527344)"/>
</clipPath>
<clipPath id="clip1_498_18618">
<rect width="100" height="90.0248" fill="white" transform="translate(0.0527344 4.78259)"/>
</clipPath>
</defs>
</svg>
