<svg width="101" height="100" viewBox="0 0 101 100" fill="none" xmlns="http://www.w3.org/2000/svg">
<g clip-path="url(#clip0_498_18616)">
<g clip-path="url(#clip1_498_18616)">
<path d="M67.531 34.6158C76.555 43.6398 76.555 58.2903 67.531 67.3143C58.507 76.3384 43.8565 76.3384 34.8325 67.3143C25.8084 58.2903 25.8084 43.6398 34.8325 34.6158C43.8565 25.5918 58.507 25.5918 67.531 34.6158Z" fill="url(#paint0_linear_498_18616)"/>
<path d="M19.9012 37.0773L4.53216 63.5371C-1.32666 73.6238 2.10071 86.5502 12.1874 92.409L12.2061 92.4199C22.2928 98.2787 35.2192 94.8513 41.078 84.7646L56.4471 58.3049C62.3059 48.2182 58.8785 35.2918 48.7918 29.4329L48.7731 29.4221C38.6864 23.5633 25.76 26.9906 19.9012 37.0773Z" stroke="#00373B" stroke-width="3.24605"/>
<path d="M59.0223 14.7751L43.6533 41.2348C37.7944 51.3215 41.2218 64.2479 51.3085 70.1067L51.3272 70.1176C61.4139 75.9764 74.3403 72.5491 80.1991 62.4624L95.5682 36.0026C101.427 25.9159 97.9996 12.9895 87.9129 7.1307L87.8942 7.11983C77.8075 1.26101 64.8811 4.68838 59.0223 14.7751Z" stroke="#00373B" stroke-width="3.24605"/>
<path d="M22.2985 72.3568V66.7736C23.0559 66.9251 23.6834 67.228 24.1379 67.6609C24.6573 68.1586 25.0251 68.8294 25.1766 69.7167C25.1983 69.8682 25.3281 69.9547 25.4796 69.9547H27.7302C27.7302 69.9547 27.9033 69.9114 27.9466 69.8465C28.0115 69.7816 28.0332 69.695 28.0332 69.6085C27.9033 68.1369 27.2757 66.9034 26.237 65.9945C25.2632 65.1506 23.9215 64.6096 22.2985 64.4148V61.753C22.2985 61.5799 22.1686 61.4501 21.9955 61.4501H20.4374C20.2643 61.4501 20.1344 61.5799 20.1344 61.753V64.3715C16.6503 64.6528 14.0535 66.6005 14.0535 69.3272C14.0535 70.6256 14.5296 71.6427 15.3736 72.4217C16.2175 73.1791 17.4077 73.6985 18.8577 74.0448L20.1561 74.3477V80.8398C19.0524 80.6883 18.2084 80.2988 17.6025 79.7578C16.9317 79.1735 16.5205 78.4161 16.3474 77.5505C16.3257 77.4206 16.1959 77.3124 16.0444 77.3124H13.7505C13.7505 77.3124 13.5774 77.3557 13.5125 77.4206C13.4476 77.4856 13.4259 77.5721 13.4476 77.6587C13.9453 80.7316 16.4123 82.8091 20.1344 83.177V85.7955C20.1344 85.9686 20.2643 86.0984 20.4374 86.0984H21.9955C22.1686 86.0984 22.2985 85.9686 22.2985 85.7955V83.177C25.7609 82.8524 28.4876 80.6883 28.4876 77.6803C28.4876 76.2088 27.925 75.0835 26.9944 74.2612C26.0639 73.4388 24.7655 72.8978 23.2723 72.5516L22.3201 72.3135L22.2985 72.3568ZM19.7016 71.7509C18.6629 71.5128 17.9704 71.2315 17.5376 70.8636C17.1264 70.5174 16.9317 70.0413 16.9317 69.3272C16.9317 68.5697 17.2563 67.9638 17.8622 67.5094C18.4032 67.0982 19.1823 66.8169 20.1344 66.7303V71.8591L19.7233 71.7509H19.7016ZM25.5878 77.8318C25.5878 79.2817 24.4625 80.6018 22.2985 80.9264V74.932C23.4238 75.2133 24.2461 75.5596 24.7871 75.9924C25.3281 76.4468 25.6094 77.0311 25.6094 77.8534L25.5878 77.8318Z" fill="#00373B" stroke="#00373B" stroke-width="0.541008" stroke-linejoin="round"/>
<path d="M78.5856 16.7843L78.5423 17.1305H81.3339L81.3772 16.8708L81.8316 13.733L81.8749 13.3867H79.0833L79.04 13.6464L78.5856 16.7843ZM75.9671 35.3084L75.9238 35.6546H78.6289L78.6722 35.3949L80.9444 19.4677H78.2393L78.1961 19.7273L75.9671 35.3084Z" fill="#00373B" stroke="#00373B" stroke-width="0.64921" stroke-linecap="round" stroke-linejoin="round"/>
</g>
</g>
<defs>
<linearGradient id="paint0_linear_498_18616" x1="68.3317" y1="41.7571" x2="30.5477" y2="62.0774" gradientUnits="userSpaceOnUse">
<stop stop-color="#38B270"/>
<stop offset="1" stop-color="#3EEC78"/>
</linearGradient>
<clipPath id="clip0_498_18616">
<rect width="100" height="100" fill="white" transform="translate(0.0527344)"/>
</clipPath>
<clipPath id="clip1_498_18616">
<rect width="100" height="94.2437" fill="white" transform="translate(0.0527344 2.6532)"/>
</clipPath>
</defs>
</svg>
