<svg width="101" height="100" viewBox="0 0 101 100" fill="none" xmlns="http://www.w3.org/2000/svg">
<g clip-path="url(#clip0_498_18617)">
<g clip-path="url(#clip1_498_18617)">
<path d="M83.9591 15.5646H84.2503C88.2636 15.5646 91.5075 18.8085 91.5075 22.8218V68.6109H6.27148V22.8218C6.27148 18.8085 9.5154 15.5646 13.5287 15.5646H83.9591Z" stroke="#00373B" stroke-width="3.11915" stroke-linecap="round"/>
<path d="M91.5089 68.6318L96.0837 91.4848C96.5411 93.7722 94.7944 95.914 92.4654 95.914H47.4665H50.2945H5.31635C2.98739 95.914 1.24066 93.7722 1.69814 91.4848L6.27289 68.6318" stroke="#00373B" stroke-width="3.11915" stroke-linecap="round"/>
<path d="M51.4571 37.8768C49.5649 37.8768 48.0469 36.338 48.0469 34.4665V25.317C48.0469 24.7555 48.5043 24.3188 49.045 24.3188H49.4193L49.7728 24.61L61.2305 36.1716C61.5216 36.4627 61.6048 36.8786 61.4384 37.2737C61.2721 37.648 60.9186 37.8976 60.5027 37.8976H51.4364L51.4571 37.8768Z" fill="url(#paint0_linear_498_18617)"/>
<path d="M17.2285 68.0079V30.2454C17.2285 26.8559 19.9734 24.1111 23.3628 24.1111H47.3595C48.9607 24.1111 50.4995 24.7557 51.6432 25.8786L59.9609 34.1963C61.1046 35.34 61.7284 36.8788 61.7284 38.48V68.0079" stroke="#00373B" stroke-width="3.11915" stroke-linecap="round"/>
<path d="M25.8789 59.5239H36.9207" stroke="#00373B" stroke-width="3.11915" stroke-linecap="round"/>
<path d="M25.8789 51.2477H44.6562" stroke="#00373B" stroke-width="3.11915" stroke-linecap="round"/>
<path d="M29.9755 36.0885V32.6366C30.4537 32.7198 30.828 32.9069 31.1191 33.1773C31.4519 33.4892 31.6598 33.9051 31.7638 34.4457C31.7638 34.5289 31.847 34.5913 31.9509 34.5913H33.3441C33.3441 34.5913 33.4481 34.5705 33.4897 34.5289C33.5313 34.4873 33.5521 34.4457 33.5313 34.3833C33.4481 33.4684 33.0738 32.699 32.4292 32.1376C31.8262 31.6177 30.9944 31.2642 29.9963 31.1602V29.5175C29.9963 29.5175 29.9131 29.3303 29.8091 29.3303H28.8526C28.8526 29.3303 28.6654 29.4135 28.6654 29.5175V31.1394C26.5028 31.3058 24.9016 32.5327 24.9016 34.217C24.9016 35.028 25.1928 35.6518 25.7126 36.1301C26.2325 36.6083 26.9811 36.9203 27.8752 37.1282L28.6862 37.3153V41.3287C28 41.2247 27.4801 40.996 27.1058 40.6632C26.69 40.3097 26.4404 39.8315 26.3157 39.2908C26.3157 39.2076 26.2325 39.1453 26.1285 39.1453H24.7145C24.7145 39.1453 24.6105 39.166 24.5689 39.2076C24.5273 39.2492 24.5273 39.3116 24.5273 39.3532C24.8393 41.2455 26.3572 42.5555 28.6654 42.7635V44.3854C28.6654 44.3854 28.7486 44.5726 28.8526 44.5726H29.8091C29.8091 44.5726 29.9963 44.4894 29.9963 44.3854V42.7635C32.1381 42.5555 33.8224 41.2247 33.8224 39.3532C33.8224 38.4382 33.4689 37.752 32.8867 37.2322C32.3044 36.7123 31.4934 36.4004 30.5785 36.1717L29.9963 36.0261L29.9755 36.0885ZM28.3743 35.7142C27.7297 35.5686 27.293 35.3815 27.0227 35.1527C26.7731 34.924 26.6484 34.6537 26.6484 34.1962C26.6484 33.7179 26.8563 33.3436 27.2306 33.0733C27.5633 32.8238 28.0416 32.6574 28.6446 32.5742V35.7558L28.3743 35.6934V35.7142ZM32.0133 39.4572C32.0133 40.3513 31.3271 41.1831 29.9755 41.3702V37.6481C30.6617 37.8144 31.1815 38.0224 31.5142 38.3135C31.847 38.5838 32.0133 38.9581 32.0133 39.4572Z" fill="#00373B" stroke="#00373B" stroke-width="0.62383"/>
<path d="M95.1838 7.41312C101.672 13.901 101.672 24.4229 95.1838 30.9107C88.696 37.3986 78.174 37.3986 71.6862 30.9107C65.1984 24.4229 65.1984 13.901 71.6862 7.41312C78.174 0.925283 88.696 0.925283 95.1838 7.41312Z" fill="url(#paint1_linear_498_18617)"/>
<path d="M76.2832 22.905L79.7974 25.2964C80.6292 25.8578 81.7521 25.6707 82.3759 24.8805L90.5897 14.0466" stroke="#00373B" stroke-width="2.74485" stroke-linecap="round"/>
</g>
</g>
<defs>
<linearGradient id="paint0_linear_498_18617" x1="48.0469" y1="31.077" x2="61.5216" y2="31.077" gradientUnits="userSpaceOnUse">
<stop stop-color="#38B270"/>
<stop offset="1" stop-color="#3EEC78"/>
</linearGradient>
<linearGradient id="paint1_linear_498_18617" x1="95.8076" y1="12.5077" x2="68.5462" y2="27.1469" gradientUnits="userSpaceOnUse">
<stop stop-color="#38B270"/>
<stop offset="1" stop-color="#3EEC78"/>
</linearGradient>
<clipPath id="clip0_498_18617">
<rect width="100" height="100" fill="white" transform="translate(0.0527344)"/>
</clipPath>
<clipPath id="clip1_498_18617">
<rect width="100" height="94.9054" fill="white" transform="translate(0.0527344 2.54724)"/>
</clipPath>
</defs>
</svg>
